<?xml version="1.0" encoding="UTF-8"?>
<svg id="Layer_1" xmlns="http://www.w3.org/2000/svg" version="1.1" viewBox="0 0 200 200">
  <!-- Generator: Adobe Illustrator 30.0.0, SVG Export Plug-In . SVG Version: 2.1.1 Build 123)  -->
  <defs>
    <style>
      .st0 {
        fill: #fff200;
      }

      .st1 {
        fill: #fff;
      }

      .st2 {
        fill: #939598;
      }
    </style>
  </defs>
  <g>
    <path class="st1" d="M140.9,18.4c0-3.4-1-6.1-3.6-8.3-1.5-1.3-2.3-1.2-3,.9-3.5,11.1-10.6,20-17.7,28.9-5.3,6.6-11.5,12.4-15.9,19.8-.3.1-.4.4-.6.5-1.9-2.3-3.2-5.2-5.4-7.1-10.6-9.6-19.1-20.5-25-33.6-.8-1.7-1.2-3.5-2.3-5-1.3-1.5-2.5-1.8-3.6,0-3.7,5.9-7.2,11.9-7,19.2-2.5,3.2-3.1,7-3.9,10.7-1.4,7.1-1.3,14.2.1,21.3,1.3,6.2,3.7,11.9,6.6,17.4,1.7,3.4,1,5.6-2.1,7.5-4.3,2.6-8.5,4.9-12.7,7.5-11.2,7-21.3,15-28.9,26-7.5,11-10.5,22.6-6.2,35.5,1.7,5,3.4,5.8,8.4,4.1,3-1,5.4-.6,7.6,1.8,3,3.1,6.1,6.2,9.2,9.2,9.3,9.3,20.9,14.3,33.8,15.5,9.9,1,20,0,29.2-4.8,3-1.5,6.1-1.7,9.2-.3,5.6,2.5,11.2,3.9,17.2,4.8,10.7,1.4,20.9,0,30.9-4.5,9-4.1,16-11,22.7-18.1,3.6-3.9,7.6-5.4,12.5-2.6,1.2.6,2.2.6,3-.6,3.1-4.8,5-9.9,4.6-15.6-.4-5.9-1.5-11.7-4.4-17-6.1-11.4-14.7-20.4-25.2-27.9-6.6-4.6-13.6-8.7-20.4-12.9-3.4-2.1-4-4.3-2.2-7.9,5.8-11.1,8.3-22.9,7-35.4-.9-8.5-3.1-16.4-7.2-23.8-1.2-1.9-1.8-4.8-4.6-5.4h0Z"/>
    <path d="M100.2,60.2l.6-.5c1.7,1,2.6-.4,3.6-1,9.2-5.9,18.1-12.4,25-20.9,4.8-5.8,9.2-11.9,11.4-19.4,2.8.6,3.5,3.5,4.6,5.4,4.3,7.4,6.3,15.2,7.2,23.8,1.3,12.7-1.2,24.3-7,35.4-1.9,3.6-1.2,5.8,2.2,7.9,6.8,4.3,13.8,8.3,20.4,12.9,10.5,7.5,19.2,16.4,25.2,27.9,2.8,5.3,4,11.1,4.4,17,.4,5.7-1.5,10.8-4.6,15.6-.8,1.2-1.8,1.3-3,.6-4.9-2.8-8.9-1.3-12.5,2.6-6.7,7.1-13.7,13.9-22.7,18.1-9.8,4.5-20,5.9-30.9,4.5-6.1-.8-11.7-2.3-17.2-4.8-3.1-1.3-6.2-1.3-9.2.3-9.2,4.8-19.1,5.8-29.2,4.8-12.9-1.3-24.4-6.2-33.8-15.5-3.1-3.1-6.2-6.1-9.2-9.2-2.2-2.3-4.6-2.8-7.6-1.8-5,1.7-6.7.9-8.4-4.1-4.3-12.9-1.3-24.5,6.2-35.5,7.6-11,17.8-19,28.9-26,4.1-2.6,8.5-4.9,12.7-7.5,3.1-1.9,3.7-4.1,2.1-7.5-2.8-5.6-5.3-11.2-6.6-17.4-1.4-7.1-1.5-14.2-.1-21.3.8-3.7,1.4-7.6,3.9-10.7.6,4.3,4.3,6.3,7,9.2,7.1,7,15,13,23.1,18.6,7.6,5.2,14.5,11,18.1,19.8.8,1.8.9,3.7,2.5,5.7.8-5.6,1-10.5-.8-15.5-1.5-4.1-4.3-7.4-6.3-11.2h0ZM137.1,114.6c-12.1-.4-22.2,9.3-21.9,21.2.3,12.4,8.4,21.8,22.1,22.2,11.2.3,21.3-8.9,21.9-21.3.6-12.5-9.8-22.6-22.1-22.1ZM62.1,157.6c12.1.9,22.1-10.2,22.2-21.3.3-12.3-9.8-21.3-20.9-21.8-13.4-.6-23.2,9.8-23.2,21.2s10.1,22.6,21.9,21.9ZM102.3,154.6c-3.2,0-5.6,2.5-5.6,5.7s3.7,5.6,6.2,5.4c1.8,0,5.7-4,5.7-5.9,0-2.8-3-5.3-6.3-5.3h0Z"/>
    <path class="st2" d="M100.2,60.2c2.1,3.7,4.8,7.1,6.3,11.2,1.9,5,1.5,9.9.8,15.5-1.5-1.9-1.7-3.9-2.5-5.7-3.6-8.8-10.5-14.6-18.1-19.8-8.3-5.6-16.1-11.6-23.1-18.6-2.8-2.7-6.3-4.8-7-9.2-.4-7.4,3.2-13.3,7-19.2,1.2-1.9,2.5-1.5,3.6,0,1.2,1.4,1.5,3.4,2.3,5,5.9,13,14.5,24,25,33.6,2.3,2.1,3.5,4.9,5.4,7.1h.1Z"/>
    <path class="st2" d="M140.9,18.4c-2.2,7.4-6.6,13.4-11.4,19.4-7,8.7-15.9,15-25,20.9-1,.6-1.9,2.2-3.6,1,4.3-7.4,10.6-13.2,15.9-19.8,7.1-8.9,14.2-17.8,17.7-28.9.6-2.1,1.4-2.2,3-.9,2.5,2.2,3.6,4.9,3.6,8.3h-.1Z"/>
    <path class="st1" d="M137.1,114.6c12.3-.5,22.7,9.6,22.1,22.1-.6,12.3-10.7,21.6-21.9,21.3-13.7-.4-21.8-9.7-22.1-22.2-.3-11.9,9.8-21.6,21.9-21.2Z"/>
    <path class="st1" d="M62.1,157.6c-11.9.6-21.9-10.1-21.9-21.9s9.8-21.8,23.2-21.2c11.1.5,21.2,9.6,20.9,21.8-.3,11.1-10.1,22.2-22.2,21.3Z"/>
    <path class="st0" d="M102.3,154.6c3.4,0,6.3,2.5,6.3,5.3s-3.9,5.9-5.7,5.9-6.1-3.2-6.2-5.4c0-3.4,2.2-5.7,5.6-5.7h0Z"/>
  </g>
  <path d="M49.4,131.4c3.6,2.8,6.2,2.8,8.1.1,2.5-3.4,1.4-7-2.5-9.6,3.2-3.6,9.4-4.1,13.7-1,5.8,4.4,7.6,10.6,6.8,17.4-.3,2.7-1.3,5.6-2.5,8-2.2,4.4-5.9,7.1-10.8,7-5.2,0-8.7-3.1-10.8-7.5-2.3-4.5-2.7-9.2-1.8-14.5h-.3Z"/>
  <path d="M150.4,131.5c-3.6,2.8-6.2,2.8-8.1.1-2.5-3.4-1.4-7,2.5-9.6-3.2-3.6-9.4-4.1-13.7-1-5.8,4.4-7.6,10.6-6.8,17.4.3,2.7,1.3,5.6,2.5,8,2.2,4.4,5.9,7.1,10.8,7,5.2,0,8.7-3.1,10.8-7.5,2.3-4.5,2.7-9.2,1.8-14.5h.3Z"/>
  <circle class="st1" cx="62.7" cy="136.6" r="1.9"/>
  <circle class="st1" cx="137.2" cy="136.6" r="1.9"/>
</svg>